<svg width="14" height="11" viewBox="0 0 14 11" fill="none" xmlns="http://www.w3.org/2000/svg">
<path d="M8.77539 7.01367C8.77539 5.23242 9.20312 3.83789 10.0586 2.83008C10.9258 1.82227 12.1387 1.16016 13.6973 0.84375V2.67188C12.5137 3.03516 11.7168 3.69141 11.3066 4.64062C11.0723 5.14453 10.9785 5.63086 11.0254 6.09961H13.7852V10.7227H8.77539V7.01367ZM0.443359 7.01367C0.443359 5.25586 0.859375 3.86719 1.69141 2.84766C2.53516 1.82812 3.75977 1.16016 5.36523 0.84375V2.67188C4.16992 3.04688 3.36719 3.69141 2.95703 4.60547C2.74609 5.08594 2.6582 5.58398 2.69336 6.09961H5.45312V10.7227H0.443359V7.01367Z" fill="#72767D"/>
</svg>
