<svg width="40" height="40" viewBox="0 0 40 40" fill="none" xmlns="http://www.w3.org/2000/svg">
<g clip-path="url(#clip0)">
<path fill-rule="evenodd" clip-rule="evenodd" d="M12.2214 14.3176C10.1231 15.6444 8.39394 17.4798 7.19436 19.6534C5.99479 21.827 5.3637 24.2683 5.35964 26.751L0 26.7422C0.00553487 23.3568 0.86612 20.0276 2.5019 17.0637C4.13768 14.0997 6.49564 11.5969 9.357 9.7876L12.2214 14.3176Z" fill="#F2C03E"/>
<path fill-rule="evenodd" clip-rule="evenodd" d="M20.1245 12.0356C17.6418 12.0311 15.1983 12.6539 13.0206 13.846L10.447 9.14468C13.4166 7.51906 16.7487 6.66988 20.1341 6.67594C23.5195 6.68199 26.8485 7.54309 29.8122 9.17933L27.2218 13.8714C25.0484 12.6715 22.6071 12.04 20.1245 12.0356Z" fill="#4D4F53"/>
<path fill-rule="evenodd" clip-rule="evenodd" d="M33.0152 19.6752C31.8192 17.4997 30.093 15.6615 27.9968 14.3312L30.8687 9.80591C33.7271 11.6199 36.0809 14.1265 37.7119 17.0932C39.3428 20.0598 40.1979 23.3904 40.1979 26.7758H34.8383C34.8383 24.2931 34.2112 21.8507 33.0152 19.6752Z" fill="#4D4F53"/>
<path fill-rule="evenodd" clip-rule="evenodd" d="M21.7884 23.7701L14.8958 23.7266L18.3044 29.7175C18.6422 30.3372 19.1475 30.8759 19.8009 31.2586C21.7165 32.3808 24.179 31.7375 25.3011 29.822C26.4233 27.9064 25.78 25.4439 23.8645 24.3217C23.2111 23.939 22.4941 23.7616 21.7884 23.7701Z" fill="#F2C03E"/>
</g>
<defs>
<clipPath id="clip0">
<rect width="40" height="40" fill="white"/>
</clipPath>
</defs>
</svg>
