<svg width="40" height="40" viewBox="0 0 40 40" fill="none" xmlns="http://www.w3.org/2000/svg">
<g clip-path="url(#clip0)">
<path fill-rule="evenodd" clip-rule="evenodd" d="M12.2214 14.3176C10.1231 15.6444 8.39394 17.4798 7.19436 19.6534C5.99479 21.827 5.3637 24.2683 5.35964 26.751L0 26.7422C0.00553487 23.3568 0.86612 20.0276 2.5019 17.0637C4.13768 14.0997 6.49564 11.5969 9.357 9.7876L12.2214 14.3176Z" fill="#4D4F53"/>
<path fill-rule="evenodd" clip-rule="evenodd" d="M20.1247 12.0356C17.6421 12.0311 15.1986 12.6539 13.0209 13.846L10.4473 9.14468C13.4168 7.51906 16.7489 6.66988 20.1343 6.67594C23.5197 6.68199 26.8487 7.54309 29.8125 9.17933L27.222 13.8714C25.0486 12.6715 22.6073 12.04 20.1247 12.0356Z" fill="#09D9D6"/>
<path fill-rule="evenodd" clip-rule="evenodd" d="M33.0149 19.6752C31.8189 17.4997 30.0927 15.6615 27.9966 14.3312L30.8684 9.80591C33.7268 11.6199 36.0807 14.1265 37.7116 17.0932C39.3425 20.0598 40.1977 23.3904 40.1977 26.7758H34.838C34.838 24.2931 34.2109 21.8507 33.0149 19.6752Z" fill="#4D4F53"/>
<path fill-rule="evenodd" clip-rule="evenodd" d="M23.5447 26.7139L20.0983 20.7446L16.652 26.7139C16.288 27.3186 16.0786 28.0269 16.0786 28.7841C16.0786 31.0041 17.8783 32.8038 20.0983 32.8038C22.3184 32.8038 24.1181 31.0041 24.1181 28.7841C24.1181 28.0269 23.9087 27.3186 23.5447 26.7139Z" fill="#09D9D6"/>
</g>
<defs>
<clipPath id="clip0">
<rect width="40" height="40" fill="white"/>
</clipPath>
</defs>
</svg>
